<svg id="Layer_1" data-name="Layer 1" xmlns="http://www.w3.org/2000/svg" viewBox="0 0 119.18 119.25"><defs><style>.cls-1{fill:#25a8e0;}.cls-2{fill:#2a388e;}.cls-3{fill:#88c440;}.cls-4{fill:#ffde00;}.cls-5{fill:#f6931d;}.cls-6{fill:#ee3e2c;}</style></defs><title>logo</title><path class="cls-1" d="M59.62,92.37A32.74,32.74,0,1,1,82.06,35.78L78.9,38.94a28.27,28.27,0,1,0,0,41.37l3.16,3.16A32.51,32.51,0,0,1,59.62,92.37Z"/><path class="cls-2" d="M59.62,85.9A26.27,26.27,0,1,1,77.48,40.35l-3.16,3.16a21.8,21.8,0,1,0,0,32.22l3.16,3.16A26.09,26.09,0,0,1,59.62,85.9Z"/><path class="cls-3" d="M59.62,98.84a39.21,39.21,0,1,1,27-67.64l-3.16,3.16a34.74,34.74,0,1,0,0,50.53l3.16,3.16A38.94,38.94,0,0,1,59.62,98.84Z"/><path class="cls-4" d="M59.62,105.31A45.68,45.68,0,1,1,91.21,26.62l-3.16,3.16a41.21,41.21,0,1,0,0,59.68l3.16,3.16A45.37,45.37,0,0,1,59.62,105.31Z"/><path class="cls-4" d="M59.62,105.31A45.68,45.68,0,1,1,91.21,26.62l-3.16,3.16a41.21,41.21,0,1,0,0,59.68l3.16,3.16A45.37,45.37,0,0,1,59.62,105.31Z"/><path class="cls-5" d="M59.62,111.78A52.15,52.15,0,1,1,95.79,22l-3.16,3.16a47.68,47.68,0,1,0-33,82.1A47.35,47.35,0,0,0,92.63,94l3.16,3.16A51.8,51.8,0,0,1,59.62,111.78Z"/><path class="cls-6" d="M59.62,118.25A58.62,58.62,0,1,1,100.37,17.47L97.2,20.63a54.15,54.15,0,1,0-37.58,93.15A53.78,53.78,0,0,0,97.2,98.62l3.16,3.16A58.22,58.22,0,0,1,59.62,118.25Z"/></svg>