<svg id="Layer_1" data-name="Layer 1" xmlns="http://www.w3.org/2000/svg" viewBox="0 0 2589.07 495.63"><defs><style>.cls-1{fill:#0069ff;}</style></defs><title>Artboard 16</title><path class="cls-1" d="M586.85,334.22v-.66c0-36.14,29.84-55.37,73.28-55.37a182,182,0,0,1,52.72,7.29v-6c0-30.84-18.9-46.75-51.06-46.75a107,107,0,0,0-44.43,9.62,13,13,0,0,1-4.64,1c-6,0-11.27-5-11.27-10.94a11.69,11.69,0,0,1,7-10.61,135.18,135.18,0,0,1,56-11.61c24.21,0,42.77,6.3,55.38,18.9,11.61,11.61,17.57,28.18,17.57,50.07V373c0,7.29-5.31,12.6-12.27,12.6-7.29,0-12.27-5.31-12.27-11.94V358.09c-11.94,15.58-31.83,29.51-62,29.51C619,387.61,586.85,369.37,586.85,334.22ZM713.19,321V304.38a178.82,178.82,0,0,0-50.4-7.29c-32.16,0-50.07,13.93-50.07,35.48v.66c0,21.55,19.9,34.15,43.11,34.15C687.32,367.38,713.19,348.15,713.19,321Z"/><path class="cls-1" d="M784.27,235.07H770.35A10.91,10.91,0,0,1,759.4,223.8a11,11,0,0,1,10.94-10.94h13.93V197.94c0-19.56,5.31-34.49,14.92-44.1,8.62-8.62,21.22-13.26,36.81-13.26a86.73,86.73,0,0,1,20.23,2,11.37,11.37,0,0,1,9.28,10.94,11,11,0,0,1-12.27,10.94c-4.31-.66-9-1.66-13.93-1.66-19.9,0-29.84,11.94-29.84,36.47v13.93h44.43a10.91,10.91,0,0,1,11.27,10.94,11.11,11.11,0,0,1-11.27,10.94H809.8V372.68a12.67,12.67,0,0,1-12.6,12.93,13,13,0,0,1-12.93-12.93Zm121.69,0H892A10.91,10.91,0,0,1,881.1,223.8,11,11,0,0,1,892,212.86H906V197.94c0-19.56,5.31-34.49,14.92-44.1,8.62-8.62,21.22-13.26,36.81-13.26a86.73,86.73,0,0,1,20.23,2,11.37,11.37,0,0,1,9.28,10.94,11,11,0,0,1-12.27,10.94c-4.31-.66-9-1.66-13.93-1.66-19.9,0-29.84,11.94-29.84,36.47v13.93H975.6a10.91,10.91,0,0,1,11.27,10.94,11.11,11.11,0,0,1-11.27,10.94H931.5V372.68a12.67,12.67,0,0,1-12.6,12.93A13,13,0,0,1,906,372.68ZM1018,158.81c0-8.29,6.63-13.6,14.92-13.6,8.62,0,15.25,5.31,15.25,13.6v4.31c0,8-6.63,13.59-15.25,13.59-8.29,0-14.92-5.64-14.92-13.59Zm2.32,65a12.88,12.88,0,0,1,12.6-12.93,12.74,12.74,0,0,1,12.93,12.93V372.68c0,7.29-5.31,12.93-12.6,12.93a12.74,12.74,0,0,1-12.93-12.93Z"/><path class="cls-1" d="M1090.82,223.8a12.88,12.88,0,0,1,12.6-12.93,12.74,12.74,0,0,1,12.93,12.93v18.57c11.27-18.57,29.18-33.49,58.69-33.49,41.45,0,65.65,27.85,65.65,68.64v95.17a12.77,12.77,0,1,1-25.53,0V283.82c0-31.83-17.24-51.73-47.42-51.73-29.51,0-51.4,21.55-51.4,53.72v86.88c0,7.29-5.31,12.93-12.6,12.93a12.74,12.74,0,0,1-12.93-12.93Z"/><path class="cls-1" d="M1278.19,158.81c0-8.29,6.63-13.6,14.92-13.6,8.62,0,15.25,5.31,15.25,13.6v4.31c0,8-6.63,13.59-15.25,13.59-8.29,0-14.92-5.64-14.92-13.59Zm2.32,65a12.88,12.88,0,0,1,12.6-12.93A12.74,12.74,0,0,1,1306,223.8V372.68c0,7.29-5.31,12.93-12.6,12.93a12.74,12.74,0,0,1-12.93-12.93Z"/><path class="cls-1" d="M1354.55,338.53V235.07h-13.93a11.62,11.62,0,0,1-11.27-11.27,11.39,11.39,0,0,1,11.27-11.27h13.93V172.07a12.67,12.67,0,0,1,12.6-12.93,13.17,13.17,0,0,1,12.93,12.93v40.45h44.43a11.69,11.69,0,0,1,11.61,11.27,11.47,11.47,0,0,1-11.61,11.27h-44.43V335.21c0,20.89,11.61,28.52,28.85,28.52,9,0,13.6-2.32,15.58-2.32a11,11,0,0,1,10.94,10.94c0,4.64-3,8.29-7.29,9.95a64.49,64.49,0,0,1-25.2,4.64C1375.44,386.94,1354.55,373.35,1354.55,338.53Z"/><path class="cls-1" d="M1463.54,433c-4-1.66-8-5-8-10.94a11,11,0,0,1,10.94-10.94,19.39,19.39,0,0,1,6.3,1.33,52.69,52.69,0,0,0,18.57,3c15.92,0,25.2-9.62,34.49-30.51l1.33-2.65-71.62-151.87a17.82,17.82,0,0,1-1.66-7,12.67,12.67,0,0,1,12.93-12.6c7,0,10.61,4.31,12.93,9.95l59.69,134.63,53.05-135c2-5.3,5.64-9.62,12.27-9.62a12.59,12.59,0,0,1,12.6,12.6,21.41,21.41,0,0,1-1.33,6.3l-67,159.83c-14.92,35.48-31.5,48.41-57.36,48.41A80.71,80.71,0,0,1,1463.54,433Z"/><path class="cls-1" d="M1637.05,347.48a15.16,15.16,0,0,1,15.58,15.58v6.63c0,9-6.63,15.92-15.58,15.92a15.51,15.51,0,0,1-15.92-15.92v-6.63C1621.14,354.12,1627.77,347.48,1637.05,347.48Z"/><path class="cls-1" d="M1713.18,375l-52.06-144.9c-.66-2-1.66-4.64-1.66-7a12.61,12.61,0,0,1,12.93-12.27c6.63,0,10.94,4.31,12.93,10.61l43.11,128.66,43.44-129c2-6,6-10.28,12.6-10.28h1.33c7,0,11.27,4.31,13.26,10.28l43.11,129,43.77-129.32c1.66-5.31,5.31-9.95,12.27-9.95a12.26,12.26,0,0,1,12.6,11.94c0,2.32-1,5-1.66,7L1856.76,375c-2.65,7.63-8,11.61-13.93,11.61h-1c-6.63,0-11.61-4-13.93-11.61l-42.78-125L1742,375c-2.32,7.63-7.29,11.61-13.93,11.61h-.66C1721.14,386.61,1715.83,382.63,1713.18,375Z"/><path class="cls-1" d="M1921.21,299.07v-.66c0-48.41,37.8-89.53,89.53-89.53,51.4,0,89.2,40.45,89.2,88.87v.66c0,48.41-38.13,89.53-89.86,89.53C1958.68,387.94,1921.21,347.48,1921.21,299.07Zm152.53,0v-.66c0-36.81-27.52-67-63.67-67-37.14,0-62.67,30.17-62.67,66.32v.66c0,36.81,27.19,66.65,63.33,66.65C2047.88,365.06,2073.74,335.21,2073.74,299.07Z"/><path class="cls-1" d="M2130.6,223.8a12.88,12.88,0,0,1,12.6-12.93,12.74,12.74,0,0,1,12.93,12.93V256c12.6-28.52,37.47-45.76,59-45.76,7.63,0,12.6,5.64,12.6,12.93,0,7-4.64,11.94-11.27,12.93-33.16,4-60.35,28.85-60.35,78.25v58.36a12.77,12.77,0,1,1-25.53,0Z"/><path class="cls-1" d="M2248.55,153.17a12.77,12.77,0,1,1,25.53,0V310.35l92.84-94.5c3-3.32,6-5,9.95-5,7,0,11.61,5.64,11.61,11.94,0,4-1.66,6.63-5,9.95l-56,55,61.34,77.26c2.32,3,3.32,5.31,3.32,8.62,0,7-5.31,11.94-12.27,11.94-4.64,0-7.63-1.66-10.94-6l-59.35-74.94-35.48,35.15v32.83c0,7.29-5.31,12.93-12.6,12.93a12.74,12.74,0,0,1-12.93-12.93Z"/><path class="cls-1" d="M2413.44,365.72a11.53,11.53,0,0,1-4.64-9.28,11.11,11.11,0,0,1,11.27-10.94,10.2,10.2,0,0,1,6.3,2c17.57,11.94,35.81,18.24,54.38,18.24,20.56,0,35.48-10.61,35.48-27.19v-.66c0-17.24-20.23-23.87-42.77-30.17-26.86-7.63-56.7-16.91-56.7-48.41v-.66c0-29.51,24.54-49.08,58.36-49.08,18.24,0,38.13,5.64,54.71,14.59a12.4,12.4,0,0,1,6.3,10.61,11.11,11.11,0,0,1-11.27,10.94,12.83,12.83,0,0,1-5.64-1.33c-14.59-8.29-30.17-13.26-44.76-13.26-20.23,0-33.16,10.61-33.16,24.87v.66c0,16.25,21.22,22.55,44.1,29.51,26.53,8,55,18.24,55,49.08v.66c0,32.5-26.86,51.4-61,51.4C2456.88,387.27,2432,379,2413.44,365.72Z"/><path class="cls-1" d="M549.95,166.65A138.39,138.39,0,0,0,313.7,68.79L285.36,97.14,257,68.8h0a138.39,138.39,0,0,0-195.71,0h0a138.39,138.39,0,0,0,0,195.71L248.81,452a52.15,52.15,0,0,0,37.12,15.38h.1a52.14,52.14,0,0,0,37.17-15.52L472.94,301l36.48-36.48A137.48,137.48,0,0,0,549.95,166.65Zm-243.08,269A29.3,29.3,0,0,1,286,444.4h-.06a29.3,29.3,0,0,1-20.86-8.64L77.56,248.24a115.39,115.39,0,0,1,0-163.19h0a115.39,115.39,0,0,1,163.19,0l36.48,36.48h0L448.54,292.85l-39,39a11.53,11.53,0,0,0-1.54,1.91ZM464.81,276.59,301.62,113.4,330,85.06A115.39,115.39,0,0,1,493.15,248.24Z"/><path class="cls-1" d="M285.59,226.29a67.36,67.36,0,1,0,67.36,67.36A67.43,67.43,0,0,0,285.59,226.29Zm0,20A47.06,47.06,0,0,1,309.93,253L245,318a47.33,47.33,0,0,1,40.6-71.7Zm0,94.71a47.06,47.06,0,0,1-24.34-6.75l64.94-64.94a47.33,47.33,0,0,1-40.6,71.7Z"/></svg>