<svg id="Layer_1" data-name="Layer 1" xmlns="http://www.w3.org/2000/svg" viewBox="0 0 32 32"><defs><style>.cls-1{fill:#ffb600;}</style></defs><title>person</title><path class="cls-1" d="M25.27,27.27H6.12a.57.57,0,0,1-.57-.57v-.81c-.65-2-.32-5.08.26-5.9a.74.74,0,0,1,.61-.35.76.76,0,0,1,.7.53s.22.46,2.27.66l.25-.16a13.53,13.53,0,0,1,3.06-1.54c-.2-.43-.38-.91-.58-1.45l-.23-.59a1,1,0,0,1-.34-.13c-.71-.45-.77-2.22-.77-2.24a1.36,1.36,0,0,1,.32-1l.08-.07c0-.15,0-.32,0-.49a7,7,0,0,1,.09-2A3.62,3.62,0,0,1,12.9,8.71c.2-.1.46-.27.73-.44,0,0,0-.09,0-.13a2.27,2.27,0,0,1,2.16-2.35,2.26,2.26,0,0,1,2.16,2.35c0,.07,0,.14,0,.21a5.06,5.06,0,0,0,.63.33,3.51,3.51,0,0,1,1.69,2.45,7.06,7.06,0,0,1,.09,2c0,.17,0,.33,0,.47l.06.06a1.36,1.36,0,0,1,.32,1s-.05,1.79-.77,2.24a.93.93,0,0,1-.32.13l-.19.49c-.2.54-.39,1-.59,1.45a12.88,12.88,0,0,1,3.37,1.63l.27.17c2.06-.2,2.28-.65,2.28-.66a.76.76,0,0,1,.7-.53.75.75,0,0,1,.62.35c.57.81.89,4,.25,5.92v.79a.57.57,0,0,1-.57.57h-.49ZM6.55,21.18a9.27,9.27,0,0,0,.1,4.43.57.57,0,0,1,0,.19v.34H25.2v-.32a.56.56,0,0,1,0-.19,9.4,9.4,0,0,0,.11-4.45,5.88,5.88,0,0,1-2.95.8.56.56,0,0,1-.34-.08l-.44-.27A10.89,10.89,0,0,0,17.89,20a.57.57,0,0,1-.37-.85,12.9,12.9,0,0,0,.85-1.94l.3-.78,0-.07a.57.57,0,0,1,.63-.35h0a3.89,3.89,0,0,0,.25-1.26.68.68,0,0,0,0-.25.21.21,0,0,0,.07.07l.12-.52-.57,0v-.06s0-.07,0-.1c0-.2,0-.45,0-.71a6.63,6.63,0,0,0,0-1.67c-.28-1-.61-1.54-1-1.71A7.79,7.79,0,0,1,17,9.11a.57.57,0,0,1-.25-.62,1.42,1.42,0,0,0,0-.36,1.14,1.14,0,0,0-1-1.22,1.14,1.14,0,0,0-1,1.22,1.46,1.46,0,0,0,0,.3.56.56,0,0,1-.25.59l-.08.05c-.38.24-.74.47-1,.63a2.65,2.65,0,0,0-1.06,1.73,6.62,6.62,0,0,0,0,1.64c0,.27,0,.52,0,.73,0,0,0,.07,0,.11V14a.56.56,0,0,1-.4.56,1.18,1.18,0,0,0,0,.16A3.89,3.89,0,0,0,12.17,16h0a.57.57,0,0,1,.63.36l0,.07.34.88A11.32,11.32,0,0,0,14,19.18a.56.56,0,0,1-.34.85,11.35,11.35,0,0,0-3.42,1.6l-.42.26a.57.57,0,0,1-.34.08A5.9,5.9,0,0,1,6.55,21.18Z"/></svg>