<svg id="Layer_1" data-name="Layer 1" xmlns="http://www.w3.org/2000/svg" viewBox="0 0 32 32"><defs><style>.cls-1{fill:#ee3e2c;}</style></defs><title>flag</title><path class="cls-1" d="M25,7.19a1.29,1.29,0,0,0-1.17-.74h-.05c-.12,0-2.53.11-4.38.27l0-.22a3.71,3.71,0,0,0,.09-.67c0-.58-.27-1.93-2.82-1.93A39,39,0,0,0,8.87,5.32,2.43,2.43,0,0,0,4,5.44v22a1.29,1.29,0,0,0,1.29,1.29H7.58a1.29,1.29,0,0,0,1.29-1.29V18.73a3.58,3.58,0,0,0,.74.08,4.07,4.07,0,0,0,1.45-.27,17.53,17.53,0,0,1,4.43-1.21,1.76,1.76,0,0,0,.34,1.2c.65.88,1.93,1,3,1a30.79,30.79,0,0,0,5.12-.61,1.29,1.29,0,0,0,1-1.44A18.25,18.25,0,0,1,25,11.68,6.66,6.66,0,0,0,25,7.19ZM7.58,27.48H5.29v-22a1.14,1.14,0,1,1,2.29,0ZM23.79,11.32c-.67,2.32-.13,6.32-.13,6.32a29.79,29.79,0,0,1-4.86.59c-1.26,0-2.21-.23-2-1,.28-.91-.25-1.23-1.15-1.23a17.63,17.63,0,0,0-5.05,1.3,2.79,2.79,0,0,1-1,.19,2,2,0,0,1-.72-.12V6.65a41,41,0,0,1,7.85-1.47c.91,0,1.52.17,1.52.64s-.6,2.28.29,2.28h.09c1.81-.22,5.22-.36,5.22-.36A5.46,5.46,0,0,1,23.79,11.32Z"/></svg>