<svg id="Layer_1" data-name="Layer 1" xmlns="http://www.w3.org/2000/svg" viewBox="0 0 32 32"><defs><style>.cls-1{fill:#25a8e0;}</style></defs><title>saturn</title><path class="cls-1" d="M27.2,11.53a4.89,4.89,0,0,0-2.34-.66c-.31,0-.66,0-1,0-.56,0-1.17,0-1.83.09-.46,0-.95.1-1.45.17A6.8,6.8,0,0,0,9.32,14.14l-1,.45A17.31,17.31,0,0,0,5.81,16a4.89,4.89,0,0,0-1.69,1.74,1.91,1.91,0,0,0,.71,2.57,5.49,5.49,0,0,0,2.72.64H8.1A23.63,23.63,0,0,0,11,20.73a6.79,6.79,0,0,0,11.46-3A22.39,22.39,0,0,0,25.83,16a5.5,5.5,0,0,0,2-1.92A1.91,1.91,0,0,0,27.2,11.53Zm-2,3.47a22.06,22.06,0,0,1-3.49,1.7,45.72,45.72,0,0,1-5,1.65,45.66,45.66,0,0,1-5.18,1.09,24,24,0,0,1-3.38.28H7.6a4.51,4.51,0,0,1-2.12-.45.71.71,0,0,1-.28-1A3.87,3.87,0,0,1,6.5,17a16.26,16.26,0,0,1,2.32-1.28l.27-.12c0,.14,0,.29,0,.43s0,.25,0,.38c-.24.13-.47.26-.66.39a2.17,2.17,0,0,0-.87.86c-.09.26.07.45.44.57a4.72,4.72,0,0,0,1.38.16h.39A22.69,22.69,0,0,0,12.67,18c1.13-.19,2.38-.46,3.68-.81,1-.27,2-.56,2.83-.87a14.74,14.74,0,0,0,2.52-1c.34-.15.65-.31.92-.45a5.58,5.58,0,0,0,1.46-1c.26-.29.3-.53.09-.71a2.16,2.16,0,0,0-1.18-.3h-.48l-.62,0a6.76,6.76,0,0,0-.41-.67l.62-.06c.62-.05,1.2-.08,1.72-.08.33,0,.64,0,.93,0a3.87,3.87,0,0,1,1.76.46.71.71,0,0,1,.27,1A4.51,4.51,0,0,1,25.18,15Zm-9.32,6.58a5.55,5.55,0,0,1-3.31-1.09c1.4-.24,2.88-.56,4.41-1s2.75-.79,4-1.25A5.58,5.58,0,0,1,15.86,21.59Zm0-11.17a5.59,5.59,0,0,1,5.31,3.84S20.23,14.89,16,16a25.47,25.47,0,0,1-5.59,1.06h0a5.63,5.63,0,0,1-.1-1.06q0-.26,0-.51A5.59,5.59,0,0,1,15.86,10.41Z"/></svg>